<?xml version="1.0" standalone="no"?>
<!DOCTYPE svg PUBLIC "-//W3C//DTD SVG 20010904//EN"
 "http://www.w3.org/TR/2001/REC-SVG-20010904/DTD/svg10.dtd">
<svg version="1.0" xmlns="http://www.w3.org/2000/svg"
 width="958.000000pt" height="274.000000pt" viewBox="0 0 958.000000 274.000000"
 preserveAspectRatio="xMidYMid meet">

<g transform="translate(0.000000,274.000000) scale(0.100000,-0.100000)"
fill="#000000" stroke="none">
<path d="M992 2077 c-18 -22 -4 -47 27 -47 129 -2 289 -76 393 -181 142 -144
211 -359 174 -544 -3 -16 -8 -43 -11 -60 -3 -16 -24 -68 -47 -115 -33 -66 -59
-103 -120 -163 -172 -172 -408 -227 -638 -149 -232 77 -397 285 -423 530 -6
54 -20 71 -42 52 -30 -25 0 -180 57 -295 36 -72 125 -184 170 -216 18 -13 35
-26 38 -30 9 -12 115 -68 160 -85 253 -93 537 -30 719 159 91 95 123 146 167
272 26 72 29 92 28 205 0 109 -4 135 -28 205 -91 265 -293 431 -577 471 -24 4
-39 1 -47 -9z"/>
<path d="M993 1973 c-15 -5 -18 -39 -5 -47 5 -3 24 -8 43 -11 111 -18 182 -48
257 -110 97 -80 159 -180 183 -293 10 -51 8 -183 -4 -227 -37 -135 -125 -252
-238 -318 -122 -71 -285 -89 -410 -46 -78 27 -158 70 -189 104 -27 29 -55 32
-64 8 -5 -11 7 -29 38 -57 168 -157 472 -178 672 -48 340 223 355 705 29 937
-53 38 -117 73 -147 81 -5 1 -10 3 -13 4 -3 1 -8 3 -12 5 -59 16 -123 24 -140
18z"/>
<path d="M4576 1941 c-5 -7 -8 -72 -7 -111 1 -21 6 -25 29 -24 15 0 36 -3 47
-8 23 -10 55 -61 55 -87 0 -27 7 -29 58 -19 102 20 95 15 87 56 -14 74 -61
139 -127 173 -35 18 -135 32 -142 20z"/>
<path d="M7580 1873 l0 -72 28 5 c44 8 90 -27 104 -79 l11 -44 70 13 c38 8 72
15 74 18 10 9 -22 100 -48 136 -42 57 -102 89 -177 92 l-62 3 0 -72z"/>
<path d="M2274 1931 c-2 -2 -4 -87 -4 -188 l0 -183 75 0 75 0 0 184 0 184 -71
4 c-39 2 -73 1 -75 -1z"/>
<path d="M2670 1932 c-6 -2 -10 -122 -10 -331 l0 -327 33 2 c17 1 51 2 75 3
l42 1 0 328 0 327 -65 0 c-36 0 -69 -1 -75 -3z"/>
<path d="M6217 1920 c-2 -8 -2 -43 1 -77 l4 -63 75 0 74 0 -3 76 -3 76 -72 1
c-56 2 -73 -1 -76 -13z"/>
<path d="M6424 1931 c-2 -2 -4 -37 -4 -78 l0 -73 120 0 121 0 -3 76 -3 75
-113 2 c-63 1 -116 0 -118 -2z"/>
<path d="M6823 1932 l-63 -3 0 -74 0 -75 75 0 75 0 0 78 c0 57 -3 78 -12 78
-7 -1 -41 -2 -75 -4z"/>
<path d="M2905 1918 c-2 -7 -2 -24 -1 -38 2 -14 4 -42 5 -62 l1 -38 75 0 75 0
0 75 0 75 -75 0 c-52 0 -77 -4 -80 -12z"/>
<path d="M3105 1893 c2 -21 4 -55 4 -75 l1 -38 120 0 120 0 0 75 0 75 -124 0
-123 0 2 -37z"/>
<path d="M3454 1888 c3 -24 8 -54 11 -68 2 -14 7 -36 10 -50 2 -14 7 -43 10
-65 3 -23 7 -52 10 -65 3 -13 7 -42 11 -65 3 -22 7 -44 8 -50 2 -5 6 -31 11
-57 l7 -48 59 0 c58 0 58 0 64 33 11 60 12 90 4 126 -4 20 -10 54 -13 76 -3
22 -13 93 -22 158 l-17 117 -79 0 -80 0 6 -42z"/>
<path d="M3769 1918 c-1 -14 -5 -42 -19 -138 -5 -36 -12 -83 -14 -105 -4 -33
-100 -708 -109 -770 -3 -19 1 -20 67 -17 39 2 72 5 73 6 2 1 12 65 23 141 11
77 22 151 24 165 2 14 12 78 21 143 10 65 19 116 21 114 3 -3 30 -167 48 -292
4 -22 11 -65 16 -95 5 -30 12 -75 15 -100 11 -93 3 -85 86 -82 41 2 75 4 75 5
1 1 16 94 33 207 17 113 33 220 36 238 l6 32 -75 0 -75 0 -10 38 c-9 36 -15
74 -26 177 -3 28 -8 61 -11 75 -2 14 -6 34 -8 45 -10 55 -29 191 -29 213 0 8
-24 12 -84 12 -59 0 -83 -4 -84 -12z"/>
<path d="M4096 1913 c-3 -10 -8 -43 -11 -73 -3 -30 -10 -82 -15 -115 -5 -33
-12 -82 -15 -110 -3 -27 -10 -74 -16 -104 -16 -95 -19 -91 64 -91 l74 0 11 68
c7 37 23 141 37 232 14 91 27 175 30 188 5 21 3 22 -74 22 -67 0 -80 -3 -85
-17z"/>
<path d="M4446 1889 c-25 -23 -51 -50 -57 -60 -9 -18 -5 -19 61 -19 l70 0 0
60 c0 73 -9 76 -74 19z"/>
<path d="M5316 1913 c10 -50 76 -460 77 -480 0 -9 20 -13 63 -13 l62 0 7 46
c5 35 -1 149 -10 184 -1 3 -5 28 -9 55 -4 28 -9 61 -12 74 -2 13 -6 45 -9 70
-12 85 -8 81 -95 81 -69 0 -78 -2 -74 -17z"/>
<path d="M5632 1898 c-1 -18 -34 -251 -72 -518 -38 -266 -68 -485 -67 -487 4
-4 137 -6 140 -2 2 2 21 123 41 269 36 246 54 335 56 270 2 -29 6 -63 14 -105
3 -16 11 -61 17 -100 6 -38 12 -81 15 -95 2 -14 6 -41 9 -60 3 -19 7 -46 10
-60 2 -14 7 -46 10 -72 l7 -47 74 -3 c41 -2 74 -3 74 -2 0 1 56 353 69 432 l8
52 -78 0 c-56 0 -79 4 -80 13 0 6 -2 21 -4 32 -2 11 -7 40 -10 65 -3 25 -8 56
-10 70 -16 96 -35 223 -40 265 -3 28 -8 59 -10 70 -2 11 -4 26 -4 33 -1 8 -25
12 -84 12 l-83 0 -2 -32z"/>
<path d="M5946 1803 c-10 -71 -20 -146 -23 -168 -2 -22 -10 -77 -18 -123 -15
-97 -17 -94 76 -90 l64 3 12 75 c6 41 21 136 33 210 12 74 24 154 27 178 l5
42 -79 0 -79 0 -18 -127z"/>
<path d="M6960 1856 l0 -76 28 0 c68 0 112 -48 117 -128 7 -94 -50 -152 -150
-152 l-45 0 0 115 0 115 -75 0 -75 0 0 -320 0 -320 75 0 75 0 0 129 c0 96 3
130 13 134 26 10 118 -1 143 -18 74 -48 72 -216 -4 -275 -22 -18 -40 -20 -163
-20 l-139 0 0 -75 c0 -53 4 -75 13 -75 6 -1 81 -1 166 0 143 1 157 3 202 26
84 42 129 124 134 247 5 101 -29 194 -90 244 l-35 29 31 23 c85 63 98 260 25
371 -32 49 -125 96 -193 99 l-53 2 0 -75z"/>
<path d="M7490 1913 c-25 -17 -68 -64 -83 -89 -6 -11 5 -14 58 -14 l65 0 0 60
c0 33 -3 60 -8 60 -4 0 -19 -8 -32 -17z"/>
<path d="M7969 1923 c0 -5 -1 -36 -2 -71 l-2 -62 78 0 77 0 0 70 0 70 -75 0
c-41 0 -75 -3 -76 -7z"/>
<path d="M8220 1855 l0 -75 60 0 60 0 0 75 0 75 -60 0 -60 0 0 -75z"/>
<path d="M8390 1855 l0 -75 160 0 160 0 0 75 0 75 -160 0 -160 0 0 -75z"/>
<path d="M8810 1855 l0 -75 75 0 75 0 0 75 0 75 -75 0 -75 0 0 -75z"/>
<path d="M9010 1855 l0 -75 120 0 120 0 1 38 c1 20 2 53 3 72 l1 35 -122 3
-123 3 0 -76z"/>
<path d="M984 1847 c-9 -26 2 -34 73 -53 122 -32 200 -90 258 -188 101 -172
51 -400 -113 -521 -52 -38 -117 -63 -190 -73 -42 -6 -47 -10 -47 -32 0 -23 3
-25 45 -22 176 11 336 145 395 332 1 3 5 36 9 73 28 235 -142 457 -377 492
-38 6 -48 4 -53 -8z"/>
<path d="M2474 1615 l3 -220 85 -255 c83 -250 85 -255 111 -254 15 1 52 2 82
3 l55 1 0 170 0 170 -78 0 -79 0 -91 303 -91 302 3 -220z"/>
<path d="M4363 1745 c-3 -9 -3 -44 -1 -79 8 -107 40 -159 181 -298 153 -151
179 -198 156 -280 l-8 -28 80 0 c76 0 79 1 85 26 23 93 -33 220 -143 326 -139
134 -155 151 -174 192 -11 24 -19 64 -19 99 l0 57 -75 0 c-59 0 -77 -3 -82
-15z"/>
<path d="M7379 1733 c-8 -151 28 -221 193 -376 56 -54 113 -115 125 -135 25
-40 31 -109 13 -143 -10 -18 -7 -19 73 -19 79 0 85 1 91 23 10 40 6 83 -13
140 -25 71 -64 128 -132 192 -176 165 -196 197 -198 308 l-1 37 -75 0 c-75 0
-75 0 -76 -27z"/>
<path d="M8037 1740 l-68 -5 0 -320 c0 -176 1 -326 1 -332 0 -9 22 -13 75 -13
l75 0 0 334 c0 184 -3 336 -7 338 -5 2 -39 1 -76 -2z"/>
<path d="M2910 1408 l0 -323 75 0 75 0 0 123 0 122 105 0 105 0 0 80 0 80
-105 0 -105 0 0 120 0 120 -75 0 -75 0 0 -322z"/>
<path d="M6219 1726 c-2 -2 -3 -146 -1 -320 l3 -316 74 0 75 0 0 120 0 120
105 0 105 0 0 80 0 80 -105 0 -105 0 0 120 0 120 -73 0 c-41 0 -76 -2 -78 -4z"/>
<path d="M8390 1311 l0 -419 70 -4 c39 -2 74 -2 78 -1 4 2 6 191 5 420 l-2
418 -76 3 -75 3 0 -420z"/>
<path d="M8810 1411 c0 -200 4 -321 10 -323 5 -1 39 -1 75 0 l65 4 0 119 0
119 110 0 110 0 0 80 0 80 -110 0 -110 0 0 120 0 120 -75 0 -75 0 0 -319z"/>
<path d="M933 1689 c-74 -9 -111 -27 -163 -79 -62 -62 -84 -113 -84 -195 1
-271 322 -394 501 -191 116 132 81 342 -72 432 -24 14 -56 27 -72 30 -15 2
-32 6 -38 7 -5 2 -38 0 -72 -4z"/>
<path d="M2270 1200 c0 -269 2 -310 15 -311 8 0 41 -1 73 -1 l57 -1 3 312 2
311 -75 0 -75 0 0 -310z"/>
<path d="M3545 1343 c2 -16 7 -39 9 -53 3 -14 8 -43 11 -65 7 -49 16 -105 20
-125 2 -8 4 -24 5 -35 3 -36 11 1 34 154 l23 151 -54 0 c-53 0 -53 0 -48 -27z"/>
<path d="M5410 1338 c5 -18 11 -53 14 -78 10 -71 34 -201 38 -205 2 -3 12 53
22 123 9 70 19 142 23 160 l5 32 -55 0 -55 0 8 -32z"/>
<path d="M4398 1172 l-57 -3 6 -37 c15 -111 60 -182 148 -237 21 -13 50 -19
105 -19 87 -1 134 13 175 52 30 29 59 71 53 77 -2 2 -56 5 -120 6 -64 1 -126
6 -139 13 -32 16 -68 72 -75 117 -5 27 -11 37 -23 36 -10 -1 -42 -3 -73 -5z"/>
<path d="M7421 1172 l-63 -3 6 -40 c17 -105 71 -191 145 -230 36 -19 60 -24
120 -23 101 0 171 36 207 107 l15 27 -117 0 c-162 0 -203 24 -220 127 -3 22
-11 39 -18 39 -6 -1 -40 -2 -75 -4z"/>
<path d="M2908 973 c2 -38 4 -72 5 -76 2 -5 99 -8 217 -8 l215 0 3 76 3 75
-223 0 -224 0 4 -67z"/>
<path d="M6215 965 l0 -75 213 0 c116 0 215 -1 220 -2 4 -2 8 32 10 75 l3 77
-223 0 -223 0 0 -75z"/>
<path d="M8810 965 l0 -74 213 -3 c116 -2 215 -1 219 2 3 3 8 38 10 78 l4 72
-223 0 -223 0 0 -75z"/>
<path d="M8036 1020 l-70 -5 0 -62 c-1 -35 2 -63 7 -64 9 0 124 0 137 0 12 1
14 128 3 133 -5 2 -39 1 -77 -2z"/>
</g>
</svg>
